<mxfile host="app.diagrams.net" agent="Mozilla/5.0 (X11; Ubuntu; Linux x86_64; rv:129.0) Gecko/20100101 Firefox/129.0" version="24.7.7">
  <diagram id="C5RBs43oDa-KdzZeNtuy" name="Page-1">
    <mxGraphModel dx="1587" dy="1272" grid="1" gridSize="10" guides="1" tooltips="1" connect="1" arrows="1" fold="1" page="1" pageScale="1" pageWidth="827" pageHeight="1169" math="0" shadow="0">
      <root>
        <mxCell id="WIyWlLk6GJQsqaUBKTNV-0" />
        <mxCell id="WIyWlLk6GJQsqaUBKTNV-1" parent="WIyWlLk6GJQsqaUBKTNV-0" />
        <mxCell id="pF1_9j49e7I3QFhnvVE9-12" style="edgeStyle=orthogonalEdgeStyle;rounded=0;orthogonalLoop=1;jettySize=auto;html=1;" edge="1" parent="WIyWlLk6GJQsqaUBKTNV-1" source="pF1_9j49e7I3QFhnvVE9-2" target="pF1_9j49e7I3QFhnvVE9-3">
          <mxGeometry relative="1" as="geometry" />
        </mxCell>
        <mxCell id="pF1_9j49e7I3QFhnvVE9-2" value="Leitura de Sinais" style="rounded=0;whiteSpace=wrap;html=1;fillColor=#dae8fc;strokeColor=#6c8ebf;" vertex="1" parent="WIyWlLk6GJQsqaUBKTNV-1">
          <mxGeometry x="330" y="170" width="120" height="60" as="geometry" />
        </mxCell>
        <mxCell id="pF1_9j49e7I3QFhnvVE9-13" style="edgeStyle=orthogonalEdgeStyle;rounded=0;orthogonalLoop=1;jettySize=auto;html=1;entryX=-0.015;entryY=0.492;entryDx=0;entryDy=0;entryPerimeter=0;" edge="1" parent="WIyWlLk6GJQsqaUBKTNV-1" source="pF1_9j49e7I3QFhnvVE9-3" target="pF1_9j49e7I3QFhnvVE9-4">
          <mxGeometry relative="1" as="geometry" />
        </mxCell>
        <mxCell id="pF1_9j49e7I3QFhnvVE9-3" value="Conversão AD" style="rounded=0;whiteSpace=wrap;html=1;fillColor=#dae8fc;strokeColor=#6c8ebf;" vertex="1" parent="WIyWlLk6GJQsqaUBKTNV-1">
          <mxGeometry x="500" y="170" width="120" height="60" as="geometry" />
        </mxCell>
        <mxCell id="pF1_9j49e7I3QFhnvVE9-33" style="edgeStyle=orthogonalEdgeStyle;rounded=0;orthogonalLoop=1;jettySize=auto;html=1;entryX=0;entryY=0.5;entryDx=0;entryDy=0;" edge="1" parent="WIyWlLk6GJQsqaUBKTNV-1" source="pF1_9j49e7I3QFhnvVE9-4" target="pF1_9j49e7I3QFhnvVE9-7">
          <mxGeometry relative="1" as="geometry" />
        </mxCell>
        <mxCell id="pF1_9j49e7I3QFhnvVE9-4" value="Leitura de Parâmetros de Interface" style="rounded=0;whiteSpace=wrap;html=1;fillColor=#dae8fc;strokeColor=#6c8ebf;" vertex="1" parent="WIyWlLk6GJQsqaUBKTNV-1">
          <mxGeometry x="670" y="170" width="120" height="60" as="geometry" />
        </mxCell>
        <mxCell id="pF1_9j49e7I3QFhnvVE9-37" style="edgeStyle=orthogonalEdgeStyle;rounded=0;orthogonalLoop=1;jettySize=auto;html=1;entryX=0;entryY=0.5;entryDx=0;entryDy=0;" edge="1" parent="WIyWlLk6GJQsqaUBKTNV-1" source="pF1_9j49e7I3QFhnvVE9-6" target="pF1_9j49e7I3QFhnvVE9-8">
          <mxGeometry relative="1" as="geometry" />
        </mxCell>
        <mxCell id="pF1_9j49e7I3QFhnvVE9-6" value="Filtros Passa-Alta" style="rounded=0;whiteSpace=wrap;html=1;fillColor=#dae8fc;strokeColor=#6c8ebf;" vertex="1" parent="WIyWlLk6GJQsqaUBKTNV-1">
          <mxGeometry x="880" y="205" width="120" height="60" as="geometry" />
        </mxCell>
        <mxCell id="pF1_9j49e7I3QFhnvVE9-35" style="edgeStyle=orthogonalEdgeStyle;rounded=0;orthogonalLoop=1;jettySize=auto;html=1;entryX=0;entryY=0.5;entryDx=0;entryDy=0;" edge="1" parent="WIyWlLk6GJQsqaUBKTNV-1" source="pF1_9j49e7I3QFhnvVE9-7" target="pF1_9j49e7I3QFhnvVE9-8">
          <mxGeometry relative="1" as="geometry" />
        </mxCell>
        <mxCell id="pF1_9j49e7I3QFhnvVE9-7" value="Aplicação de Efeitos" style="rounded=0;whiteSpace=wrap;html=1;fillColor=#dae8fc;strokeColor=#6c8ebf;" vertex="1" parent="WIyWlLk6GJQsqaUBKTNV-1">
          <mxGeometry x="880" y="135" width="120" height="60" as="geometry" />
        </mxCell>
        <mxCell id="pF1_9j49e7I3QFhnvVE9-38" style="edgeStyle=orthogonalEdgeStyle;rounded=0;orthogonalLoop=1;jettySize=auto;html=1;entryX=0;entryY=0.5;entryDx=0;entryDy=0;" edge="1" parent="WIyWlLk6GJQsqaUBKTNV-1" source="pF1_9j49e7I3QFhnvVE9-8" target="pF1_9j49e7I3QFhnvVE9-9">
          <mxGeometry relative="1" as="geometry" />
        </mxCell>
        <mxCell id="pF1_9j49e7I3QFhnvVE9-8" value="Conversão DA" style="rounded=0;whiteSpace=wrap;html=1;fillColor=#dae8fc;strokeColor=#6c8ebf;" vertex="1" parent="WIyWlLk6GJQsqaUBKTNV-1">
          <mxGeometry x="1070" y="170" width="120" height="60" as="geometry" />
        </mxCell>
        <mxCell id="pF1_9j49e7I3QFhnvVE9-42" style="edgeStyle=orthogonalEdgeStyle;rounded=0;orthogonalLoop=1;jettySize=auto;html=1;exitX=1;exitY=0.5;exitDx=0;exitDy=0;entryX=0;entryY=0.5;entryDx=0;entryDy=0;" edge="1" parent="WIyWlLk6GJQsqaUBKTNV-1" source="pF1_9j49e7I3QFhnvVE9-9" target="pF1_9j49e7I3QFhnvVE9-41">
          <mxGeometry relative="1" as="geometry" />
        </mxCell>
        <mxCell id="pF1_9j49e7I3QFhnvVE9-9" value="Saída de Sinais" style="rounded=0;whiteSpace=wrap;html=1;fillColor=#dae8fc;strokeColor=#6c8ebf;" vertex="1" parent="WIyWlLk6GJQsqaUBKTNV-1">
          <mxGeometry x="1220" y="170" width="120" height="60" as="geometry" />
        </mxCell>
        <mxCell id="pF1_9j49e7I3QFhnvVE9-27" style="edgeStyle=orthogonalEdgeStyle;rounded=0;orthogonalLoop=1;jettySize=auto;html=1;exitX=0.5;exitY=1;exitDx=0;exitDy=0;" edge="1" parent="WIyWlLk6GJQsqaUBKTNV-1" source="pF1_9j49e7I3QFhnvVE9-26" target="pF1_9j49e7I3QFhnvVE9-4">
          <mxGeometry relative="1" as="geometry" />
        </mxCell>
        <mxCell id="pF1_9j49e7I3QFhnvVE9-26" value="Botões" style="rounded=0;whiteSpace=wrap;html=1;fillColor=#fff2cc;strokeColor=#d6b656;" vertex="1" parent="WIyWlLk6GJQsqaUBKTNV-1">
          <mxGeometry x="670" y="80" width="120" height="60" as="geometry" />
        </mxCell>
        <mxCell id="pF1_9j49e7I3QFhnvVE9-32" style="edgeStyle=orthogonalEdgeStyle;rounded=0;orthogonalLoop=1;jettySize=auto;html=1;exitX=0.5;exitY=1;exitDx=0;exitDy=0;entryX=0.5;entryY=0;entryDx=0;entryDy=0;" edge="1" parent="WIyWlLk6GJQsqaUBKTNV-1" source="pF1_9j49e7I3QFhnvVE9-31" target="pF1_9j49e7I3QFhnvVE9-2">
          <mxGeometry relative="1" as="geometry" />
        </mxCell>
        <mxCell id="pF1_9j49e7I3QFhnvVE9-31" value="Dispositivo de Reprodução" style="rounded=0;whiteSpace=wrap;html=1;fillColor=#fff2cc;strokeColor=#d6b656;" vertex="1" parent="WIyWlLk6GJQsqaUBKTNV-1">
          <mxGeometry x="330" y="80" width="120" height="60" as="geometry" />
        </mxCell>
        <mxCell id="pF1_9j49e7I3QFhnvVE9-34" style="edgeStyle=orthogonalEdgeStyle;rounded=0;orthogonalLoop=1;jettySize=auto;html=1;entryX=0;entryY=0.667;entryDx=0;entryDy=0;entryPerimeter=0;" edge="1" parent="WIyWlLk6GJQsqaUBKTNV-1" source="pF1_9j49e7I3QFhnvVE9-4" target="pF1_9j49e7I3QFhnvVE9-6">
          <mxGeometry relative="1" as="geometry" />
        </mxCell>
        <mxCell id="pF1_9j49e7I3QFhnvVE9-40" style="edgeStyle=orthogonalEdgeStyle;rounded=0;orthogonalLoop=1;jettySize=auto;html=1;entryX=0;entryY=0.5;entryDx=0;entryDy=0;" edge="1" parent="WIyWlLk6GJQsqaUBKTNV-1" source="pF1_9j49e7I3QFhnvVE9-39" target="pF1_9j49e7I3QFhnvVE9-2">
          <mxGeometry relative="1" as="geometry" />
        </mxCell>
        <mxCell id="pF1_9j49e7I3QFhnvVE9-39" value="Início" style="ellipse;whiteSpace=wrap;html=1;fillColor=#dae8fc;strokeColor=#6c8ebf;" vertex="1" parent="WIyWlLk6GJQsqaUBKTNV-1">
          <mxGeometry x="150" y="160" width="120" height="80" as="geometry" />
        </mxCell>
        <mxCell id="pF1_9j49e7I3QFhnvVE9-41" value="Fim" style="ellipse;whiteSpace=wrap;html=1;fillColor=#dae8fc;strokeColor=#6c8ebf;" vertex="1" parent="WIyWlLk6GJQsqaUBKTNV-1">
          <mxGeometry x="1400" y="160" width="120" height="80" as="geometry" />
        </mxCell>
      </root>
    </mxGraphModel>
  </diagram>
</mxfile>
